# xmcd CD Database Entry
#
# Track frame offsets:
# 182
# 78970
# 158290
# 173010
# 184930
# 195185
# 207280
# 221052
#
# Disc length: 3236 seconds
#
# Revision: 1
# Processed by: cddbd v1.4PL0 Copyright (c) Steve Scherf et al.
# Submitted via: tcd 2.0b
#
DISCID=5c0ca208
DTITLE=La compagnie créole - Blogodo
DYEAR=1900
DGENRE=
TTITLE0=Blogodo (1ère partie)
TTITLE1=Blogodo (2ème partie)
TTITLE2=Macaque la
TTITLE3=L'auto neuf
TTITLE4=La rue Zabyme
TTITLE5=Maladie d'amour
TTITLE6=En tamarin
TTITLE7=Ba moin en ti bo
EXTD=Submitted by CPI
EXTT0=Blogodo - Angélina - La pli tomber - La grève - Blogodo - Pan
EXTT0=ama - Epiki \nalors - Eulalie - Blogodo - Bombe sirop - Marie
EXTT0=Jo e - Edamise oh - Crapaud
EXTT1=Le ran lo - Téléphoner bamoin - Asi pare - Ami Roro - Blogodo
EXTT1=Blogodo \n- Leve yo - Si vous avez des cornes - Femme tomb
EXTT1=e - Za fe co Ida - Pamela \n- En ba rad la - Blogodo - Madian
EXTT1=a
EXTT2=
EXTT3=
EXTT4=
EXTT5=
EXTT6=
EXTT7=
PLAYORDER=
